<?xml version="1.0" encoding="UTF-8" standalone="no"?>
<!-- Generator: Adobe Illustrator 19.0.0, SVG Export Plug-In . SVG Version: 6.00 Build 0)  -->

<svg
   version="1.1"
   id="Layer_1"
   x="0px"
   y="0px"
   viewBox="-100 -100 1583.19 1715.5579"
   xml:space="preserve"
   inkscape:version="1.2.2 (732a01da63, 2022-12-09)"
   sodipodi:docname="bax.svg"
   width="1583.191"
   height="1715.559"
   inkscape:export-filename="bax.png"
   inkscape:export-xdpi="90"
   inkscape:export-ydpi="90"
   xmlns:inkscape="http://www.inkscape.org/namespaces/inkscape"
   xmlns:sodipodi="http://sodipodi.sourceforge.net/DTD/sodipodi-0.dtd"
   xmlns="http://www.w3.org/2000/svg"
   xmlns:svg="http://www.w3.org/2000/svg"
   xmlns:rdf="http://www.w3.org/1999/02/22-rdf-syntax-ns#"
   xmlns:cc="http://creativecommons.org/ns#"
   xmlns:dc="http://purl.org/dc/elements/1.1/"><metadata
   id="metadata43"><rdf:RDF><cc:Work
       rdf:about=""><dc:format>image/svg+xml</dc:format><dc:type
         rdf:resource="http://purl.org/dc/dcmitype/StillImage" /></cc:Work></rdf:RDF></metadata><defs
   id="defs41" /><sodipodi:namedview
   pagecolor="#ffffff"
   bordercolor="#666666"
   borderopacity="1"
   objecttolerance="10"
   gridtolerance="10"
   guidetolerance="10"
   inkscape:pageopacity="0"
   inkscape:pageshadow="2"
   inkscape:window-width="1928"
   inkscape:window-height="1201"
   id="namedview39"
   showgrid="false"
   inkscape:zoom="0.32593204"
   inkscape:cx="622.82923"
   inkscape:cy="728.67951"
   inkscape:window-x="1240"
   inkscape:window-y="214"
   inkscape:window-maximized="0"
   inkscape:current-layer="Layer_1"
   fit-margin-top="50"
   fit-margin-left="600"
   fit-margin-right="600"
   fit-margin-bottom="50"
   inkscape:showpageshadow="0"
   inkscape:pagecheckerboard="0"
   inkscape:deskcolor="#d1d1d1" /><g
   id="g9"
   transform="translate(-871.64833,1762.1134)" /><g
   id="g11"
   transform="translate(-871.64833,1762.1134)" /><g
   id="g13"
   transform="translate(-871.64833,1762.1134)" /><g
   id="g15"
   transform="translate(-871.64833,1762.1134)" /><g
   id="g17"
   transform="translate(-871.64833,1762.1134)" /><g
   id="g19"
   transform="translate(-871.64833,1762.1134)" /><g
   id="g21"
   transform="translate(-871.64833,1762.1134)" /><g
   id="g23"
   transform="translate(-871.64833,1762.1134)" /><g
   id="g25"
   transform="translate(-871.64833,1762.1134)" /><g
   id="g27"
   transform="translate(-871.64833,1762.1134)" /><g
   id="g29"
   transform="translate(-871.64833,1762.1134)" /><g
   id="g31"
   transform="translate(-871.64833,1762.1134)" /><g
   id="g33"
   transform="translate(-871.64833,1762.1134)" /><g
   id="g35"
   transform="translate(-871.64833,1762.1134)" /><g
   id="g37"
   transform="translate(-871.64833,1762.1134)" /><text
   xml:space="preserve"
   style="font-style:normal;font-weight:normal;font-size:9.34914px;line-height:0%;font-family:sans-serif;letter-spacing:0px;word-spacing:0px;fill:#0c79d3;fill-opacity:1;stroke:#0c79d3;stroke-width:30;stroke-linecap:butt;stroke-linejoin:miter;stroke-dasharray:none;stroke-opacity:1"
   x="-33.693398"
   y="1500.5591"
   id="text4189"><tspan
     sodipodi:role="line"
     id="tspan4191"
     x="-33.693398"
     y="1500.5591"
     style="font-style:normal;font-variant:normal;font-weight:normal;font-stretch:normal;font-size:486.934px;line-height:1.25;font-family:'Dune Rise';-inkscape-font-specification:'Dune Rise';fill:#0c79d3;fill-opacity:1;stroke:#0c79d3;stroke-width:30;stroke-dasharray:none;stroke-opacity:1">BAX</tspan></text>
<g
   id="g2158"
   transform="translate(-652.24315,-308.44284)"><path
     d="m 909.91815,311.65482 c -15.08253,5.35827 -25.00524,16.0748 -29.17278,31.35578 -4.96136,18.45624 5.15981,39.8893 23.02069,49.0182 l 9.72426,4.96136 h 452.67418 452.4757 l 8.3351,-4.366 c 19.4485,-10.51807 28.1805,-31.35577 22.2269,-53.18574 -2.7784,-10.31962 -17.8609,-25.00524 -28.7759,-28.37896 -12.8995,-3.77063 -899.79162,-3.37372 -910.50815,0.59536 z"
     id="path413"
     style="fill:#607d8b;fill-opacity:1;stroke:none;stroke-width:0.198454" /><path
     d="m 1357.2341,530.74834 c -34.7295,7.14435 -47.6291,49.61356 -22.6238,74.22189 13.2964,13.29644 -5.9536,12.30417 247.4725,12.89953 165.3124,0.39691 232.1915,-0.19845 238.1451,-1.78609 10.915,-2.97681 25.9975,-17.86088 28.9743,-28.57741 5.9536,-21.82997 -2.7784,-42.66767 -22.2269,-53.18575 l -8.3351,-4.36599 -227.2301,-0.19846 c -125.0262,-0.19845 -230.4054,0.19846 -234.176,0.99228 z"
     id="path415"
     style="fill:#607d8b;fill-opacity:1;stroke:none;stroke-width:0.198454" /><path
     d="m 1029.7845,622.63266 c -6.1521,3.17527 -10.1211,7.14436 -13.2964,13.29644 -4.366,8.53353 -4.5645,10.31962 -4.5645,62.11619 v 53.18574 h -71.24504 -71.24509 l -10.51807,5.55672 c -15.28098,7.93817 -22.62379,20.24233 -22.62379,38.10322 0,17.86088 7.34281,30.16505 22.62379,38.10322 l 10.51807,5.55672 h 71.24509 71.24504 v 53.18574 c 0,51.79657 0.1985,53.58266 4.5645,61.91773 7.9382,14.88408 26.3944,21.63152 41.6754,15.08253 8.3351,-3.57218 166.1062,-150.03143 170.6707,-158.56496 1.786,-3.37373 3.3737,-10.31962 3.3737,-15.28098 0,-4.96136 -1.5877,-11.90726 -3.3737,-15.28098 -4.5645,-8.53353 -162.3356,-154.99278 -170.6707,-158.56496 -9.1289,-3.96909 -18.2578,-3.37372 -28.379,1.58763 z"
     id="path417"
     style="fill:#2196f3;fill-opacity:1;stroke:none;stroke-width:0.198454" /><path
     d="m 1349.2959,753.41403 c -15.6779,6.35053 -27.7836,24.40987 -27.7836,41.67539 0,12.89953 8.5335,28.97433 19.4485,36.51559 l 8.732,5.95363 233.5807,0.59536 233.7791,0.39691 10.7165,-5.55672 c 15.281,-7.93817 22.6238,-20.24234 22.6238,-38.10322 0,-17.86089 -7.3428,-30.16505 -22.6238,-38.10322 l -10.518,-5.55672 -231.5962,0.19845 c -147.0546,0 -233.1837,0.79382 -236.359,1.98455 z"
     id="path419"
     style="fill:#607d8b;fill-opacity:1;stroke:none;stroke-width:0.198454" /><path
     d="m 1350.6851,974.29363 c -22.0284,7.93817 -33.7372,31.55427 -27.1883,54.77337 2.5799,9.3274 12.5027,21.0362 22.4254,26.3944 l 8.3351,4.366 h 230.2069 c 248.4648,0 238.3436,0.3969 251.4416,-10.5181 7.5412,-6.3505 15.4794,-22.8222 15.4794,-32.1495 0,-18.8532 -14.0903,-38.89709 -30.7604,-43.46153 -5.5567,-1.58764 -74.8173,-2.183 -235.1683,-2.183 -186.547,0.19845 -228.6193,0.59536 -234.7714,2.77836 z"
     id="path421"
     style="fill:#607d8b;fill-opacity:1;stroke:none;stroke-width:0.198454" /><path
     d="m 913.09341,1193.7841 c -10.31962,2.3814 -21.63151,11.1134 -27.58514,21.2346 -4.36599,7.7397 -5.55672,11.9072 -5.55672,21.433 0.19846,18.0594 8.33508,31.1573 24.80678,39.8893 6.74745,3.5722 22.02843,3.7707 456.44487,4.366 348.4857,0.3969 451.4834,0 458.2309,-1.9845 11.7088,-3.1753 26.7913,-17.464 29.7681,-28.379 5.9536,-21.83 -2.7784,-42.6676 -22.2269,-53.1857 l -8.3351,-4.366 -449.4989,-0.3969 c -247.274,0 -452.47571,0.3969 -456.04789,1.3892 z"
     id="path423"
     style="fill:#607d8b;fill-opacity:1;stroke:none;stroke-width:0.198454" /></g></svg>
